<svg width="32" height="32" viewBox="0 0 32 32" fill="none" xmlns="http://www.w3.org/2000/svg">
  <!-- Círculo verde-oliva de fundo -->
  <circle cx="16" cy="16" r="16" fill="#6B8E23"/>
  
  <!-- Livro branco aberto - página esquerda com curvatura -->
  <path d="M9 13.5C9 12.2 9.8 11.2 10.8 11C11.5 11 12.2 11.3 12.7 11.7L12.7 20.3C12.2 20 11.5 19.7 10.8 19.7C9.8 19.5 9 18.5 9 17.2V13.5Z" fill="white"/>
  
  <!-- Livro branco aberto - página direita com curvatura -->
  <path d="M23 13.5C23 12.2 22.2 11.2 21.2 11C20.5 11 19.8 11.3 19.3 11.7L19.3 20.3C19.8 20 20.5 19.7 21.2 19.7C22.2 19.5 23 18.5 23 17.2V13.5Z" fill="white"/>
  
  <!-- Páginas centrais do livro abertas -->
  <path d="M12.7 11.7C13.2 11.3 13.9 11 14.6 11C15.6 11.2 16.4 12.2 16.4 13.5V17.2C16.4 18.5 15.6 19.5 14.6 19.7C13.9 19.7 13.2 19.4 12.7 19L12.7 11.7Z" fill="white"/>
  
  <!-- Linha da lombada esquerda -->
  <line x1="10.8" y1="13" x2="10.8" y2="17.5" stroke="#6B8E23" stroke-width="0.4" opacity="0.4"/>
  
  <!-- Linha da lombada direita -->
  <line x1="21.2" y1="13" x2="21.2" y2="17.5" stroke="#6B8E23" stroke-width="0.4" opacity="0.4"/>
  
  <!-- Cruz verde-oliva sólida sobre o livro (vertical) -->
  <rect x="14.5" y="12.5" width="3" height="7" fill="#6B8E23"/>
  
  <!-- Cruz verde-oliva sólida sobre o livro (horizontal) -->
  <rect x="12" y="15" width="8" height="3" fill="#6B8E23"/>
</svg>

